<mxfile host="app.diagrams.net" modified="2022-05-29T06:10:26.943Z" agent="5.0 (Windows NT 10.0; Win64; x64) AppleWebKit/537.36 (KHTML, like Gecko) Chrome/101.0.0.0 Safari/537.36" etag="1D3nU9WzIttUY5uhvNlU" version="18.1.3" type="github">
  <diagram id="DGz6nZt02LNkiC93Wkvx" name="Page-1">
    <mxGraphModel dx="1041" dy="579" grid="1" gridSize="10" guides="1" tooltips="1" connect="1" arrows="1" fold="1" page="1" pageScale="1" pageWidth="827" pageHeight="1169" math="0" shadow="0">
      <root>
        <mxCell id="0" />
        <mxCell id="1" parent="0" />
      </root>
    </mxGraphModel>
  </diagram>
</mxfile>
